<svg width="381" height="212" viewBox="0 0 381 212" fill="none" xmlns="http://www.w3.org/2000/svg">
<rect width="381" height="212" rx="5" fill="#F9F7F7"/>
<path d="M45.4226 130.565H28.6328V86.9282H45.2521C49.7408 86.9282 53.6186 87.8018 56.8857 89.549C60.1669 91.2819 62.6953 93.7819 64.4709 97.049C66.2607 100.302 67.1555 104.201 67.1555 108.746C67.1555 113.292 66.2678 117.198 64.4922 120.465C62.7166 123.718 60.2024 126.218 56.9496 127.965C53.6967 129.698 49.8544 130.565 45.4226 130.565ZM40.4794 120.508H44.9964C47.1555 120.508 48.995 120.16 50.5149 119.464C52.049 118.768 53.2138 117.567 54.0092 115.863C54.8189 114.158 55.2237 111.786 55.2237 108.746C55.2237 105.707 54.8118 103.334 53.9879 101.63C53.1783 99.9254 51.9851 98.7251 50.4084 98.0291C48.8459 97.3331 46.9283 96.9851 44.6555 96.9851H40.4794V120.508ZM114.909 108.746C114.909 113.604 113.965 117.702 112.076 121.04C110.186 124.364 107.637 126.886 104.426 128.604C101.216 130.309 97.6367 131.161 93.6879 131.161C89.7106 131.161 86.1168 130.302 82.9066 128.583C79.7106 126.85 77.168 124.322 75.2788 120.998C73.4038 117.66 72.4663 113.576 72.4663 108.746C72.4663 103.888 73.4038 99.7976 75.2788 96.4737C77.168 93.1356 79.7106 90.6143 82.9066 88.9098C86.1168 87.191 89.7106 86.3316 93.6879 86.3316C97.6367 86.3316 101.216 87.191 104.426 88.9098C107.637 90.6143 110.186 93.1356 112.076 96.4737C113.965 99.7976 114.909 103.888 114.909 108.746ZM102.722 108.746C102.722 106.133 102.374 103.931 101.678 102.141C100.996 100.337 99.9805 98.9737 98.631 98.0504C97.2958 97.1129 95.6481 96.6441 93.6879 96.6441C91.7276 96.6441 90.0728 97.1129 88.7234 98.0504C87.3881 98.9737 86.3725 100.337 85.6765 102.141C84.9947 103.931 84.6538 106.133 84.6538 108.746C84.6538 111.36 84.9947 113.569 85.6765 115.373C86.3725 117.163 87.3881 118.526 88.7234 119.464C90.0728 120.387 91.7276 120.849 93.6879 120.849C95.6481 120.849 97.2958 120.387 98.631 119.464C99.9805 118.526 100.996 117.163 101.678 115.373C102.374 113.569 102.722 111.36 102.722 108.746ZM161.129 103.292H149.112C149.027 102.298 148.8 101.396 148.43 100.586C148.075 99.7763 147.578 99.0802 146.939 98.4978C146.314 97.9013 145.554 97.4467 144.659 97.1342C143.764 96.8075 142.749 96.6441 141.612 96.6441C139.624 96.6441 137.94 97.1271 136.562 98.093C135.199 99.0589 134.162 100.444 133.452 102.248C132.756 104.052 132.408 106.218 132.408 108.746C132.408 111.417 132.763 113.654 133.473 115.458C134.197 117.248 135.241 118.597 136.605 119.506C137.969 120.401 139.609 120.849 141.527 120.849C142.621 120.849 143.601 120.714 144.467 120.444C145.334 120.16 146.087 119.755 146.726 119.229C147.365 118.704 147.884 118.072 148.281 117.333C148.693 116.58 148.97 115.735 149.112 114.798L161.129 114.883C160.987 116.729 160.469 118.611 159.574 120.529C158.679 122.433 157.408 124.194 155.76 125.813C154.126 127.418 152.102 128.711 149.688 129.691C147.273 130.671 144.467 131.161 141.271 131.161C137.266 131.161 133.672 130.302 130.49 128.583C127.322 126.864 124.815 124.336 122.969 120.998C121.136 117.66 120.22 113.576 120.22 108.746C120.22 103.888 121.158 99.7976 123.033 96.4737C124.908 93.1356 127.436 90.6143 130.618 88.9098C133.8 87.191 137.351 86.3316 141.271 86.3316C144.027 86.3316 146.563 86.7081 148.878 87.4609C151.193 88.2138 153.224 89.3146 154.972 90.7635C156.719 92.1981 158.125 93.9666 159.19 96.0689C160.256 98.1711 160.902 100.579 161.129 103.292ZM166.504 130.565V86.9282H178.35V104.57H178.947L192.072 86.9282H205.879L191.135 106.36L206.22 130.565H192.072L182.271 114.201L178.35 119.315V130.565H166.504Z" fill="#061335"/>
<path d="M209.395 130.565V86.9282H228.315C231.639 86.9282 234.43 87.3757 236.689 88.2706C238.961 89.1655 240.673 90.4297 241.824 92.0632C242.988 93.6967 243.571 95.6214 243.571 97.8373C243.571 99.4424 243.216 100.906 242.505 102.227C241.809 103.548 240.829 104.656 239.565 105.55C238.301 106.431 236.824 107.042 235.133 107.383V107.809C237.008 107.88 238.713 108.356 240.247 109.236C241.781 110.103 243.002 111.303 243.912 112.837C244.821 114.357 245.275 116.147 245.275 118.207C245.275 120.593 244.65 122.717 243.4 124.577C242.164 126.438 240.403 127.901 238.116 128.967C235.829 130.032 233.102 130.565 229.934 130.565H209.395ZM221.241 121.104H226.781C228.77 121.104 230.261 120.735 231.255 119.996C232.25 119.244 232.747 118.136 232.747 116.673C232.747 115.65 232.512 114.783 232.044 114.073C231.575 113.363 230.907 112.823 230.041 112.454C229.189 112.084 228.159 111.9 226.951 111.9H221.241V121.104ZM221.241 104.57H226.099C227.136 104.57 228.052 104.407 228.848 104.08C229.643 103.754 230.261 103.285 230.701 102.674C231.156 102.049 231.383 101.289 231.383 100.394C231.383 99.0447 230.9 98.0149 229.934 97.3047C228.968 96.5802 227.747 96.218 226.27 96.218H221.241V104.57ZM331.504 97.8373L336.277 107.979L341.305 97.8373H352.981L344.203 114.201L353.407 130.565H341.816L336.277 120.167L330.907 130.565H319.146L328.436 114.201L319.743 97.8373H331.504Z" fill="#3474F1"/>
<path fill-rule="evenodd" clip-rule="evenodd" d="M258.101 86.0228C256.843 85.5941 255.525 86.4888 255.459 87.8162L254.15 114.026C254.111 114.804 254.527 115.533 255.216 115.896L276.712 127.212C277.995 127.888 279.547 127.016 279.639 125.569L281.547 95.5731C281.604 94.6721 281.05 93.8444 280.196 93.5531L258.101 86.0228ZM262.802 98.4492L261.966 112.971L268.801 113.364C269.855 113.425 270.773 113.3 271.555 112.989C272.336 112.678 272.95 112.225 273.397 111.63C273.849 111.034 274.098 110.34 274.143 109.546C274.183 108.86 274.066 108.256 273.792 107.733C273.519 107.205 273.136 106.782 272.642 106.464C272.148 106.142 271.59 105.951 270.967 105.891L270.976 105.749C271.545 105.668 272.048 105.493 272.485 105.224C272.923 104.951 273.271 104.601 273.528 104.175C273.789 103.749 273.936 103.269 273.966 102.734C274.009 101.997 273.852 101.345 273.496 100.779C273.144 100.214 272.599 99.7602 271.859 99.4189C271.125 99.0778 270.205 98.8754 269.099 98.8117L262.802 98.4492ZM267.933 110.156L266.09 110.049L266.266 106.986L268.166 107.096C268.568 107.119 268.907 107.2 269.184 107.339C269.465 107.479 269.677 107.671 269.819 107.917C269.962 108.162 270.023 108.455 270.003 108.795C269.975 109.282 269.789 109.641 269.443 109.873C269.098 110.099 268.595 110.194 267.933 110.156ZM268.023 104.64L266.406 104.547L266.566 101.768L268.24 101.864C268.731 101.892 269.131 102.036 269.439 102.296C269.746 102.551 269.887 102.903 269.862 103.352C269.844 103.65 269.754 103.898 269.591 104.097C269.433 104.292 269.218 104.436 268.947 104.53C268.676 104.623 268.368 104.66 268.023 104.64Z" fill="#050B2C"/>
<path fill-rule="evenodd" clip-rule="evenodd" d="M285.563 93.764C284.673 93.94 284.012 94.6939 283.954 95.6001L282.017 125.982C281.928 127.375 283.257 128.427 284.592 128.022L309.53 120.455C310.318 120.216 310.879 119.518 310.944 118.697L313.14 90.9059C313.244 89.5854 312.06 88.5309 310.76 88.7876L285.563 93.764ZM304.464 107.611C305.307 107.403 306.466 107.52 306.908 107.791L306.907 107.791L307.2 107.971C307.2 107.971 307.023 108.309 307.005 108.331C306.268 109.634 304.794 109.606 304.15 109.593C304.123 109.593 304.097 109.592 304.073 109.592C302.266 113.738 299.295 115.453 295.828 115.45C293.556 115.448 292.036 114.772 291.03 113.851C290.868 113.701 290.718 113.546 290.581 113.386C289.344 111.937 289.181 110.157 289.202 109.232L296.117 109.232C296.907 109.232 297.589 109.236 298.182 109.239C300.955 109.256 301.801 109.261 302.704 108.781C302.412 108.457 302.261 108.009 302.216 107.611C302.158 106.965 302.32 106.254 302.704 105.72L302.9 105.45L303.193 105.63C303.985 106.195 304.418 106.843 304.464 107.611ZM291.77 106.945L293.715 106.945L293.715 108.724L291.77 108.724L291.77 106.945ZM294.282 106.945L296.227 106.945L296.227 108.724L294.282 108.724L294.282 106.945ZM296.795 106.945L298.739 106.945L298.739 108.724L296.795 108.724L296.795 106.945ZM299.307 106.945L301.251 106.945L301.251 108.724L299.307 108.724L299.307 106.945ZM289.258 106.945L291.202 106.945L291.202 108.724L289.258 108.724L289.258 106.945ZM291.77 104.698L293.715 104.698L293.715 106.477L291.77 106.477L291.77 104.698ZM294.282 104.698L296.227 104.698L296.227 106.477L294.282 106.477L294.282 104.698ZM296.795 104.698L298.739 104.698L298.739 106.477L296.795 106.477L296.795 104.698ZM296.795 102.45L298.739 102.45L298.739 104.229L296.795 104.229L296.795 102.45Z" fill="#040A25"/>
<path d="M282.603 76.6332C282.865 76.5879 283.134 76.5955 283.393 76.6554L310.319 82.8783C312.424 83.3647 312.37 86.38 310.249 86.7905L283.502 91.9675C283.173 92.0312 282.833 92.0111 282.513 91.909L259.283 84.4867C257.289 83.8498 257.489 80.9665 259.551 80.6107L282.603 76.6332Z" fill="#3474F1"/>
</svg>
