<svg width="839" height="295" viewBox="0 0 839 295" fill="none" xmlns="http://www.w3.org/2000/svg">
<rect x="0.5" y="0.5" width="838" height="294" rx="4.5" fill="white" stroke="white"/>
<mask id="path-2-outside-1_13_2" maskUnits="userSpaceOnUse" x="65.2177" y="82" width="678" height="93" fill="black">
<rect fill="white" x="65.2177" y="82" width="678" height="93"/>
<path d="M100.695 172H67.1155V84.7273H100.354C109.331 84.7273 117.087 86.4744 123.621 89.9688C130.184 93.4347 135.24 98.4347 138.792 104.969C142.371 111.474 144.161 119.273 144.161 128.364C144.161 137.455 142.385 145.267 138.834 151.801C135.283 158.307 130.255 163.307 123.749 166.801C117.243 170.267 109.559 172 100.695 172ZM90.8087 151.886H99.8428C104.161 151.886 107.84 151.19 110.88 149.798C113.948 148.406 116.277 146.006 117.868 142.597C119.488 139.187 120.297 134.443 120.297 128.364C120.297 122.284 119.473 117.54 117.826 114.131C116.206 110.722 113.82 108.321 110.667 106.929C107.542 105.537 103.706 104.841 99.1609 104.841H90.8087V151.886ZM239.669 128.364C239.669 138.08 237.78 146.276 234.001 152.952C230.223 159.599 225.123 164.642 218.703 168.08C212.282 171.489 205.123 173.193 197.226 173.193C189.271 173.193 182.084 171.474 175.663 168.037C169.271 164.571 164.186 159.514 160.407 152.866C156.657 146.19 154.782 138.023 154.782 128.364C154.782 118.648 156.657 110.466 160.407 103.818C164.186 97.142 169.271 92.0994 175.663 88.6903C182.084 85.2528 189.271 83.5341 197.226 83.5341C205.123 83.5341 212.282 85.2528 218.703 88.6903C225.123 92.0994 230.223 97.142 234.001 103.818C237.78 110.466 239.669 118.648 239.669 128.364ZM215.294 128.364C215.294 123.136 214.598 118.733 213.206 115.153C211.842 111.545 209.811 108.818 207.112 106.972C204.441 105.097 201.146 104.159 197.226 104.159C193.305 104.159 189.995 105.097 187.297 106.972C184.626 108.818 182.595 111.545 181.203 115.153C179.839 118.733 179.157 123.136 179.157 128.364C179.157 133.591 179.839 138.009 181.203 141.616C182.595 145.196 184.626 147.923 187.297 149.798C189.995 151.645 193.305 152.568 197.226 152.568C201.146 152.568 204.441 151.645 207.112 149.798C209.811 147.923 211.842 145.196 213.206 141.616C214.598 138.009 215.294 133.591 215.294 128.364ZM332.108 117.455H308.074C307.904 115.466 307.449 113.662 306.711 112.043C306 110.423 305.006 109.031 303.728 107.866C302.478 106.673 300.958 105.764 299.168 105.139C297.378 104.486 295.347 104.159 293.074 104.159C289.097 104.159 285.731 105.125 282.975 107.057C280.248 108.989 278.174 111.759 276.753 115.366C275.361 118.974 274.665 123.307 274.665 128.364C274.665 133.705 275.375 138.179 276.796 141.787C278.245 145.366 280.333 148.065 283.06 149.884C285.787 151.673 289.069 152.568 292.904 152.568C295.091 152.568 297.052 152.298 298.785 151.759C300.517 151.19 302.023 150.381 303.302 149.33C304.58 148.278 305.617 147.014 306.412 145.537C307.236 144.031 307.79 142.341 308.074 140.466L332.108 140.636C331.824 144.33 330.787 148.094 328.998 151.929C327.208 155.736 324.665 159.259 321.37 162.497C318.103 165.707 314.054 168.293 309.225 170.253C304.395 172.213 298.785 173.193 292.392 173.193C284.381 173.193 277.194 171.474 270.83 168.037C264.495 164.599 259.481 159.543 255.787 152.866C252.123 146.19 250.29 138.023 250.29 128.364C250.29 118.648 252.165 110.466 255.915 103.818C259.665 97.142 264.722 92.0994 271.086 88.6903C277.449 85.2528 284.552 83.5341 292.392 83.5341C297.904 83.5341 302.975 84.2869 307.606 85.7926C312.236 87.2983 316.299 89.5 319.793 92.3977C323.287 95.267 326.1 98.804 328.231 103.009C330.361 107.213 331.654 112.028 332.108 117.455ZM342.858 172V84.7273H366.551V120.011H367.744L393.994 84.7273H421.608L392.119 123.591L422.289 172H393.994L374.392 139.273L366.551 149.5V172H342.858Z"/>
<path d="M428.639 172V84.7273H466.48C473.128 84.7273 478.71 85.6222 483.227 87.4119C487.772 89.2017 491.196 91.7301 493.497 94.9972C495.826 98.2642 496.991 102.114 496.991 106.545C496.991 109.756 496.281 112.682 494.861 115.324C493.468 117.966 491.508 120.182 488.98 121.972C486.451 123.733 483.497 124.955 480.116 125.636V126.489C483.866 126.631 487.275 127.582 490.343 129.344C493.412 131.077 495.855 133.477 497.673 136.545C499.491 139.585 500.4 143.165 500.4 147.284C500.4 152.057 499.15 156.304 496.65 160.026C494.179 163.747 490.656 166.673 486.082 168.804C481.508 170.935 476.054 172 469.718 172H428.639ZM452.332 153.08H463.412C467.389 153.08 470.372 152.341 472.361 150.864C474.349 149.358 475.343 147.142 475.343 144.216C475.343 142.17 474.875 140.437 473.937 139.017C473 137.597 471.664 136.517 469.932 135.778C468.227 135.04 466.167 134.67 463.753 134.67H452.332V153.08ZM452.332 120.011H462.048C464.122 120.011 465.954 119.685 467.545 119.031C469.136 118.378 470.372 117.44 471.253 116.219C472.162 114.969 472.616 113.449 472.616 111.659C472.616 108.96 471.65 106.901 469.718 105.48C467.787 104.031 465.343 103.307 462.389 103.307H452.332V120.011ZM696.764 106.545L706.309 126.83L716.366 106.545H739.718L722.162 139.273L740.571 172H717.389L706.309 151.205L695.571 172H672.048L690.628 139.273L673.241 106.545H696.764Z"/>
</mask>
<path d="M100.695 172H67.1155V84.7273H100.354C109.331 84.7273 117.087 86.4744 123.621 89.9688C130.184 93.4347 135.24 98.4347 138.792 104.969C142.371 111.474 144.161 119.273 144.161 128.364C144.161 137.455 142.385 145.267 138.834 151.801C135.283 158.307 130.255 163.307 123.749 166.801C117.243 170.267 109.559 172 100.695 172ZM90.8087 151.886H99.8428C104.161 151.886 107.84 151.19 110.88 149.798C113.948 148.406 116.277 146.006 117.868 142.597C119.488 139.187 120.297 134.443 120.297 128.364C120.297 122.284 119.473 117.54 117.826 114.131C116.206 110.722 113.82 108.321 110.667 106.929C107.542 105.537 103.706 104.841 99.1609 104.841H90.8087V151.886ZM239.669 128.364C239.669 138.08 237.78 146.276 234.001 152.952C230.223 159.599 225.123 164.642 218.703 168.08C212.282 171.489 205.123 173.193 197.226 173.193C189.271 173.193 182.084 171.474 175.663 168.037C169.271 164.571 164.186 159.514 160.407 152.866C156.657 146.19 154.782 138.023 154.782 128.364C154.782 118.648 156.657 110.466 160.407 103.818C164.186 97.142 169.271 92.0994 175.663 88.6903C182.084 85.2528 189.271 83.5341 197.226 83.5341C205.123 83.5341 212.282 85.2528 218.703 88.6903C225.123 92.0994 230.223 97.142 234.001 103.818C237.78 110.466 239.669 118.648 239.669 128.364ZM215.294 128.364C215.294 123.136 214.598 118.733 213.206 115.153C211.842 111.545 209.811 108.818 207.112 106.972C204.441 105.097 201.146 104.159 197.226 104.159C193.305 104.159 189.995 105.097 187.297 106.972C184.626 108.818 182.595 111.545 181.203 115.153C179.839 118.733 179.157 123.136 179.157 128.364C179.157 133.591 179.839 138.009 181.203 141.616C182.595 145.196 184.626 147.923 187.297 149.798C189.995 151.645 193.305 152.568 197.226 152.568C201.146 152.568 204.441 151.645 207.112 149.798C209.811 147.923 211.842 145.196 213.206 141.616C214.598 138.009 215.294 133.591 215.294 128.364ZM332.108 117.455H308.074C307.904 115.466 307.449 113.662 306.711 112.043C306 110.423 305.006 109.031 303.728 107.866C302.478 106.673 300.958 105.764 299.168 105.139C297.378 104.486 295.347 104.159 293.074 104.159C289.097 104.159 285.731 105.125 282.975 107.057C280.248 108.989 278.174 111.759 276.753 115.366C275.361 118.974 274.665 123.307 274.665 128.364C274.665 133.705 275.375 138.179 276.796 141.787C278.245 145.366 280.333 148.065 283.06 149.884C285.787 151.673 289.069 152.568 292.904 152.568C295.091 152.568 297.052 152.298 298.785 151.759C300.517 151.19 302.023 150.381 303.302 149.33C304.58 148.278 305.617 147.014 306.412 145.537C307.236 144.031 307.79 142.341 308.074 140.466L332.108 140.636C331.824 144.33 330.787 148.094 328.998 151.929C327.208 155.736 324.665 159.259 321.37 162.497C318.103 165.707 314.054 168.293 309.225 170.253C304.395 172.213 298.785 173.193 292.392 173.193C284.381 173.193 277.194 171.474 270.83 168.037C264.495 164.599 259.481 159.543 255.787 152.866C252.123 146.19 250.29 138.023 250.29 128.364C250.29 118.648 252.165 110.466 255.915 103.818C259.665 97.142 264.722 92.0994 271.086 88.6903C277.449 85.2528 284.552 83.5341 292.392 83.5341C297.904 83.5341 302.975 84.2869 307.606 85.7926C312.236 87.2983 316.299 89.5 319.793 92.3977C323.287 95.267 326.1 98.804 328.231 103.009C330.361 107.213 331.654 112.028 332.108 117.455ZM342.858 172V84.7273H366.551V120.011H367.744L393.994 84.7273H421.608L392.119 123.591L422.289 172H393.994L374.392 139.273L366.551 149.5V172H342.858Z" fill="#060E23"/>
<path d="M428.639 172V84.7273H466.48C473.128 84.7273 478.71 85.6222 483.227 87.4119C487.772 89.2017 491.196 91.7301 493.497 94.9972C495.826 98.2642 496.991 102.114 496.991 106.545C496.991 109.756 496.281 112.682 494.861 115.324C493.468 117.966 491.508 120.182 488.98 121.972C486.451 123.733 483.497 124.955 480.116 125.636V126.489C483.866 126.631 487.275 127.582 490.343 129.344C493.412 131.077 495.855 133.477 497.673 136.545C499.491 139.585 500.4 143.165 500.4 147.284C500.4 152.057 499.15 156.304 496.65 160.026C494.179 163.747 490.656 166.673 486.082 168.804C481.508 170.935 476.054 172 469.718 172H428.639ZM452.332 153.08H463.412C467.389 153.08 470.372 152.341 472.361 150.864C474.349 149.358 475.343 147.142 475.343 144.216C475.343 142.17 474.875 140.437 473.937 139.017C473 137.597 471.664 136.517 469.932 135.778C468.227 135.04 466.167 134.67 463.753 134.67H452.332V153.08ZM452.332 120.011H462.048C464.122 120.011 465.954 119.685 467.545 119.031C469.136 118.378 470.372 117.44 471.253 116.219C472.162 114.969 472.616 113.449 472.616 111.659C472.616 108.96 471.65 106.901 469.718 105.48C467.787 104.031 465.343 103.307 462.389 103.307H452.332V120.011ZM696.764 106.545L706.309 126.83L716.366 106.545H739.718L722.162 139.273L740.571 172H717.389L706.309 151.205L695.571 172H672.048L690.628 139.273L673.241 106.545H696.764Z" fill="#3474F1"/>
<path d="M67.1155 172H66.1155V173H67.1155V172ZM67.1155 84.7273V83.7273H66.1155V84.7273H67.1155ZM123.621 89.9688L123.15 90.8506L123.154 90.853L123.621 89.9688ZM138.792 104.969L137.913 105.446L137.915 105.451L138.792 104.969ZM138.834 151.801L139.712 152.28L139.713 152.279L138.834 151.801ZM123.749 166.801L124.219 167.684L124.222 167.682L123.749 166.801ZM90.8087 151.886H89.8087V152.886H90.8087V151.886ZM110.88 149.798L110.467 148.888L110.463 148.889L110.88 149.798ZM117.868 142.597L116.965 142.168L116.962 142.174L117.868 142.597ZM117.826 114.131L116.922 114.56L116.925 114.566L117.826 114.131ZM110.667 106.929L110.26 107.842L110.263 107.844L110.667 106.929ZM90.8087 104.841V103.841H89.8087V104.841H90.8087ZM100.695 171H67.1155V173H100.695V171ZM68.1155 172V84.7273H66.1155V172H68.1155ZM67.1155 85.7273H100.354V83.7273H67.1155V85.7273ZM100.354 85.7273C109.201 85.7273 116.788 87.4486 123.15 90.8506L124.093 89.0869C117.386 85.5002 109.461 83.7273 100.354 83.7273V85.7273ZM123.154 90.853C129.542 94.2267 134.456 99.085 137.913 105.446L139.67 104.491C136.025 97.7843 130.825 92.6427 124.088 89.0845L123.154 90.853ZM137.915 105.451C141.397 111.779 143.161 119.404 143.161 128.364H145.161C145.161 119.142 143.345 111.17 139.668 104.487L137.915 105.451ZM143.161 128.364C143.161 137.324 141.411 144.965 137.956 151.324L139.713 152.279C143.36 145.569 145.161 137.585 145.161 128.364H143.161ZM137.956 151.322C134.498 157.658 129.61 162.518 123.276 165.92L124.222 167.682C130.9 164.096 136.068 158.956 139.712 152.28L137.956 151.322ZM123.279 165.919C116.944 169.293 109.428 171 100.695 171V173C109.69 173 117.542 171.241 124.219 167.684L123.279 165.919ZM90.8087 152.886H99.8428V150.886H90.8087V152.886ZM99.8428 152.886C104.264 152.886 108.093 152.174 111.296 150.707L110.463 148.889C107.586 150.207 104.057 150.886 99.8428 150.886V152.886ZM111.293 150.709C114.604 149.207 117.095 146.618 118.775 143.019L116.962 142.174C115.46 145.394 113.292 147.606 110.467 148.888L111.293 150.709ZM118.772 143.026C120.482 139.425 121.297 134.511 121.297 128.364H119.297C119.297 134.375 118.493 138.95 116.965 142.168L118.772 143.026ZM121.297 128.364C121.297 122.215 120.467 117.298 118.726 113.696L116.925 114.566C118.48 117.781 119.297 122.354 119.297 128.364H121.297ZM118.729 113.702C117.017 110.098 114.465 107.512 111.07 106.014L110.263 107.844C113.175 109.13 115.395 111.345 116.922 114.56L118.729 113.702ZM111.074 106.016C107.786 104.551 103.803 103.841 99.1609 103.841V105.841C103.61 105.841 107.298 106.523 110.26 107.842L111.074 106.016ZM99.1609 103.841H90.8087V105.841H99.1609V103.841ZM89.8087 104.841V151.886H91.8087V104.841H89.8087ZM234.001 152.952L234.871 153.446L234.871 153.444L234.001 152.952ZM218.703 168.08L219.172 168.963L219.175 168.961L218.703 168.08ZM175.663 168.037L175.186 168.916L175.191 168.919L175.663 168.037ZM160.407 152.866L159.535 153.356L159.538 153.361L160.407 152.866ZM160.407 103.818L159.537 103.326L159.536 103.327L160.407 103.818ZM175.663 88.6903L176.134 89.5727L176.135 89.5719L175.663 88.6903ZM218.703 88.6903L218.231 89.5719L218.234 89.5736L218.703 88.6903ZM234.001 103.818L233.131 104.311L233.132 104.312L234.001 103.818ZM213.206 115.153L212.27 115.507L212.274 115.516L213.206 115.153ZM207.112 106.972L206.537 107.79L206.547 107.797L207.112 106.972ZM187.297 106.972L187.865 107.794L187.867 107.793L187.297 106.972ZM181.203 115.153L180.27 114.793L180.268 114.797L181.203 115.153ZM181.203 141.616L180.267 141.97L180.271 141.979L181.203 141.616ZM187.297 149.798L186.722 150.617L186.732 150.624L187.297 149.798ZM207.112 149.798L207.681 150.621L207.682 150.62L207.112 149.798ZM213.206 141.616L212.273 141.257L212.271 141.26L213.206 141.616ZM238.669 128.364C238.669 137.952 236.804 145.968 233.131 152.459L234.871 153.444C238.755 146.583 240.669 138.207 240.669 128.364H238.669ZM233.132 152.458C229.442 158.95 224.476 163.854 218.231 167.198L219.175 168.961C225.77 165.43 231.004 160.249 234.871 153.446L233.132 152.458ZM218.234 167.196C211.97 170.522 204.974 172.193 197.226 172.193V174.193C205.272 174.193 212.595 172.455 219.172 168.963L218.234 167.196ZM197.226 172.193C189.42 172.193 182.397 170.508 176.135 167.155L175.191 168.919C181.77 172.441 189.122 174.193 197.226 174.193V172.193ZM176.14 167.158C169.921 163.786 164.968 158.866 161.277 152.372L159.538 153.361C163.404 160.162 168.621 165.356 175.186 168.916L176.14 167.158ZM161.279 152.377C157.632 145.884 155.782 137.895 155.782 128.364H153.782C153.782 138.15 155.682 146.496 159.536 153.356L161.279 152.377ZM155.782 128.364C155.782 118.774 157.633 110.772 161.278 104.31L159.536 103.327C155.682 110.16 153.782 118.522 153.782 128.364H155.782ZM161.278 104.311C164.968 97.7896 169.919 92.8871 176.134 89.5727L175.192 87.808C168.623 91.3118 163.403 96.4944 159.537 103.326L161.278 104.311ZM176.135 89.5719C182.397 86.2192 189.42 84.5341 197.226 84.5341V82.5341C189.122 82.5341 181.77 84.2865 175.191 87.8087L176.135 89.5719ZM197.226 84.5341C204.973 84.5341 211.968 86.2186 218.231 89.5719L219.175 87.8087C212.597 84.2871 205.274 82.5341 197.226 82.5341V84.5341ZM218.234 89.5736C224.477 92.8883 229.441 97.7908 233.131 104.311L234.871 103.326C231.005 96.4933 225.77 91.3106 219.172 87.8071L218.234 89.5736ZM233.132 104.312C236.804 110.774 238.669 118.775 238.669 128.364H240.669C240.669 118.52 238.755 110.158 234.871 103.324L233.132 104.312ZM216.294 128.364C216.294 123.054 215.588 118.52 214.138 114.791L212.274 115.516C213.608 118.946 214.294 123.218 214.294 128.364H216.294ZM214.141 114.8C212.718 111.036 210.573 108.128 207.677 106.146L206.547 107.797C209.049 109.508 210.966 112.055 212.27 115.507L214.141 114.8ZM207.687 106.153C204.816 104.138 201.309 103.159 197.226 103.159V105.159C200.983 105.159 204.067 106.055 206.537 107.79L207.687 106.153ZM197.226 103.159C193.141 103.159 189.623 104.138 186.726 106.15L187.867 107.793C190.368 106.055 193.469 105.159 197.226 105.159V103.159ZM186.728 106.149C183.863 108.13 181.72 111.035 180.27 114.793L182.136 115.513C183.47 112.056 185.389 109.506 187.865 107.794L186.728 106.149ZM180.268 114.797C178.849 118.524 178.157 123.056 178.157 128.364H180.157C180.157 123.217 180.83 118.942 182.137 115.509L180.268 114.797ZM178.157 128.364C178.157 133.672 178.849 138.217 180.267 141.97L182.138 141.263C180.83 137.8 180.157 133.51 180.157 128.364H178.157ZM180.271 141.979C181.721 145.709 183.863 148.609 186.722 150.617L187.871 148.98C185.389 147.237 183.468 144.683 182.135 141.254L180.271 141.979ZM186.732 150.624C189.628 152.605 193.144 153.568 197.226 153.568V151.568C193.466 151.568 190.363 150.685 187.861 148.973L186.732 150.624ZM197.226 153.568C201.306 153.568 204.811 152.605 207.681 150.621L206.543 148.976C204.072 150.685 200.986 151.568 197.226 151.568V153.568ZM207.682 150.62C210.573 148.612 212.717 145.708 214.14 141.972L212.271 141.26C210.967 144.684 209.049 147.235 206.541 148.977L207.682 150.62ZM214.139 141.976C215.588 138.221 216.294 133.673 216.294 128.364H214.294C214.294 133.508 213.608 137.796 212.273 141.257L214.139 141.976ZM332.108 117.455V118.455H333.196L333.105 117.371L332.108 117.455ZM308.074 117.455L307.078 117.54L307.156 118.455H308.074V117.455ZM306.711 112.043L305.795 112.444L305.798 112.451L305.801 112.458L306.711 112.043ZM303.728 107.866L303.037 108.59L303.046 108.598L303.054 108.606L303.728 107.866ZM299.168 105.139L298.825 106.079L298.838 106.083L299.168 105.139ZM282.975 107.057L282.401 106.238L282.397 106.241L282.975 107.057ZM276.753 115.366L275.823 115L275.82 115.007L276.753 115.366ZM276.796 141.787L275.865 142.153L275.869 142.162L276.796 141.787ZM283.06 149.884L282.505 150.716L282.511 150.72L283.06 149.884ZM298.785 151.759L299.082 152.713L299.089 152.711L299.096 152.709L298.785 151.759ZM303.302 149.33L303.937 150.102L303.937 150.102L303.302 149.33ZM306.412 145.537L305.535 145.057L305.532 145.063L306.412 145.537ZM308.074 140.466L308.081 139.466L307.215 139.46L307.086 140.316L308.074 140.466ZM332.108 140.636L333.105 140.713L333.188 139.644L332.115 139.636L332.108 140.636ZM328.998 151.929L329.903 152.354L329.904 152.352L328.998 151.929ZM321.37 162.497L322.071 163.21L322.071 163.21L321.37 162.497ZM270.83 168.037L270.353 168.916L270.355 168.917L270.83 168.037ZM255.787 152.866L254.911 153.348L254.912 153.351L255.787 152.866ZM255.915 103.818L256.786 104.31L256.787 104.308L255.915 103.818ZM271.086 88.6903L271.558 89.5718L271.561 89.5702L271.086 88.6903ZM307.606 85.7926L307.915 84.8416L307.915 84.8416L307.606 85.7926ZM319.793 92.3977L319.155 93.1675L319.158 93.1706L319.793 92.3977ZM328.231 103.009L327.339 103.461L327.339 103.461L328.231 103.009ZM332.108 116.455H308.074V118.455H332.108V116.455ZM309.071 117.369C308.892 115.28 308.412 113.363 307.62 111.628L305.801 112.458C306.487 113.961 306.916 115.652 307.078 117.54L309.071 117.369ZM307.626 111.641C306.861 109.896 305.785 108.389 304.401 107.127L303.054 108.606C304.227 109.674 305.14 110.95 305.795 112.444L307.626 111.641ZM304.418 107.143C303.055 105.842 301.409 104.863 299.498 104.195L298.838 106.083C300.507 106.666 301.9 107.504 303.037 108.59L304.418 107.143ZM299.511 104.2C297.592 103.499 295.442 103.159 293.074 103.159V105.159C295.252 105.159 297.164 105.472 298.825 106.079L299.511 104.2ZM293.074 103.159C288.93 103.159 285.354 104.168 282.401 106.238L283.549 107.876C286.108 106.082 289.264 105.159 293.074 105.159V103.159ZM282.397 106.241C279.487 108.302 277.303 111.241 275.823 115L277.684 115.733C279.045 112.276 281.008 109.675 283.553 107.873L282.397 106.241ZM275.82 115.007C274.373 118.759 273.665 123.22 273.665 128.364H275.665C275.665 123.394 276.35 119.19 277.686 115.726L275.82 115.007ZM273.665 128.364C273.665 133.786 274.385 138.394 275.865 142.153L277.726 141.421C276.366 137.964 275.665 133.623 275.665 128.364H273.665ZM275.869 142.162C277.379 145.894 279.583 148.767 282.505 150.716L283.615 149.051C281.083 147.363 279.11 144.839 277.723 141.412L275.869 142.162ZM282.511 150.72C285.429 152.634 288.909 153.568 292.904 153.568V151.568C289.229 151.568 286.146 150.713 283.609 149.047L282.511 150.72ZM292.904 153.568C295.172 153.568 297.235 153.288 299.082 152.713L298.487 150.804C296.868 151.308 295.01 151.568 292.904 151.568V153.568ZM299.096 152.709C300.935 152.106 302.553 151.24 303.937 150.102L302.666 148.557C301.493 149.522 300.1 150.275 298.473 150.808L299.096 152.709ZM303.937 150.102C305.317 148.967 306.437 147.601 307.293 146.011L305.532 145.063C304.797 146.427 303.843 147.59 302.666 148.557L303.937 150.102ZM307.29 146.017C308.175 144.398 308.763 142.594 309.063 140.616L307.086 140.316C306.817 142.087 306.297 143.664 305.535 145.057L307.29 146.017ZM308.067 141.466L332.101 141.636L332.115 139.636L308.081 139.466L308.067 141.466ZM331.111 140.56C330.838 144.117 329.837 147.764 328.091 151.506L329.904 152.352C331.737 148.423 332.811 144.542 333.105 140.713L331.111 140.56ZM328.093 151.504C326.358 155.193 323.888 158.62 320.669 161.784L322.071 163.21C325.442 159.897 328.058 156.279 329.903 152.354L328.093 151.504ZM320.669 161.784C317.507 164.891 313.574 167.408 308.849 169.326L309.601 171.179C314.535 169.177 318.698 166.524 322.071 163.21L320.669 161.784ZM308.849 169.326C304.162 171.228 298.684 172.193 292.392 172.193V174.193C298.885 174.193 304.628 173.198 309.601 171.179L308.849 169.326ZM292.392 172.193C284.529 172.193 277.508 170.508 271.305 167.157L270.355 168.917C276.88 172.441 284.233 174.193 292.392 174.193V172.193ZM271.307 167.158C265.149 163.817 260.269 158.902 256.662 152.382L254.912 153.351C258.692 160.183 263.84 165.382 270.353 168.916L271.307 167.158ZM256.664 152.385C253.099 145.891 251.29 137.899 251.29 128.364H249.29C249.29 138.147 251.146 146.49 254.911 153.348L256.664 152.385ZM251.29 128.364C251.29 118.774 253.141 110.772 256.786 104.31L255.044 103.327C251.19 110.16 249.29 118.522 249.29 128.364H251.29ZM256.787 104.308C260.45 97.7872 265.372 92.8855 271.558 89.5718L270.613 87.8089C264.072 91.3134 258.881 96.4969 255.043 103.328L256.787 104.308ZM271.561 89.5702C277.766 86.2181 284.703 84.5341 292.392 84.5341V82.5341C284.4 82.5341 277.132 84.2876 270.61 87.8105L271.561 89.5702ZM292.392 84.5341C297.812 84.5341 302.778 85.2744 307.296 86.7436L307.915 84.8416C303.172 83.2995 297.995 82.5341 292.392 82.5341V84.5341ZM307.296 86.7436C311.816 88.2131 315.765 90.3561 319.155 93.1675L320.431 91.628C316.833 88.6439 312.657 86.3835 307.915 84.8416L307.296 86.7436ZM319.158 93.1706C322.541 95.9482 325.268 99.3743 327.339 103.461L329.123 102.556C326.932 98.2337 324.034 94.5859 320.428 91.6249L319.158 93.1706ZM327.339 103.461C329.403 107.534 330.666 112.221 331.112 117.538L333.105 117.371C332.641 111.836 331.32 106.892 329.123 102.556L327.339 103.461ZM342.858 172H341.858V173H342.858V172ZM342.858 84.7273V83.7273H341.858V84.7273H342.858ZM366.551 84.7273H367.551V83.7273H366.551V84.7273ZM366.551 120.011H365.551V121.011H366.551V120.011ZM367.744 120.011V121.011H368.246L368.546 120.608L367.744 120.011ZM393.994 84.7273V83.7273H393.492L393.192 84.1304L393.994 84.7273ZM421.608 84.7273L422.404 85.3317L423.622 83.7273H421.608V84.7273ZM392.119 123.591L391.322 122.986L390.906 123.535L391.27 124.12L392.119 123.591ZM422.289 172V173H424.091L423.138 171.471L422.289 172ZM393.994 172L393.136 172.514L393.427 173H393.994V172ZM374.392 139.273L375.25 138.759L374.493 137.496L373.598 138.664L374.392 139.273ZM366.551 149.5L365.757 148.892L365.551 149.161V149.5H366.551ZM366.551 172V173H367.551V172H366.551ZM343.858 172V84.7273H341.858V172H343.858ZM342.858 85.7273H366.551V83.7273H342.858V85.7273ZM365.551 84.7273V120.011H367.551V84.7273H365.551ZM366.551 121.011H367.744V119.011H366.551V121.011ZM368.546 120.608L394.796 85.3242L393.192 84.1304L366.942 119.414L368.546 120.608ZM393.994 85.7273H421.608V83.7273H393.994V85.7273ZM420.811 84.1228L391.322 122.986L392.916 124.195L422.404 85.3317L420.811 84.1228ZM391.27 124.12L421.441 172.529L423.138 171.471L392.968 123.062L391.27 124.12ZM422.289 171H393.994V173H422.289V171ZM394.852 171.486L375.25 138.759L373.534 139.787L393.136 172.514L394.852 171.486ZM373.598 138.664L365.757 148.892L367.344 150.108L375.185 139.881L373.598 138.664ZM365.551 149.5V172H367.551V149.5H365.551ZM366.551 171H342.858V173H366.551V171ZM428.639 172H427.639V173H428.639V172ZM428.639 84.7273V83.7273H427.639V84.7273H428.639ZM483.227 87.4119L482.859 88.3416L482.861 88.3424L483.227 87.4119ZM493.497 94.9972L492.679 95.573L492.683 95.5777L493.497 94.9972ZM494.861 115.324L493.98 114.85L493.976 114.858L494.861 115.324ZM488.98 121.972L489.551 122.792L489.558 122.788L488.98 121.972ZM480.116 125.636L479.918 124.656L479.116 124.818V125.636H480.116ZM480.116 126.489H479.116V127.451L480.078 127.488L480.116 126.489ZM490.343 129.344L489.846 130.211L489.852 130.214L490.343 129.344ZM497.673 136.545L496.813 137.055L496.815 137.059L497.673 136.545ZM496.65 160.026L495.82 159.468L495.817 159.472L496.65 160.026ZM486.082 168.804L485.66 167.898L485.66 167.898L486.082 168.804ZM452.332 153.08H451.332V154.08H452.332V153.08ZM472.361 150.864L472.957 151.666L472.964 151.661L472.361 150.864ZM469.932 135.778L469.534 136.696L469.539 136.698L469.932 135.778ZM452.332 134.67V133.67H451.332V134.67H452.332ZM452.332 120.011H451.332V121.011H452.332V120.011ZM467.545 119.031L467.925 119.956L467.925 119.956L467.545 119.031ZM471.253 116.219L470.444 115.631L470.441 115.634L471.253 116.219ZM469.718 105.48L469.118 106.28L469.126 106.286L469.718 105.48ZM452.332 103.307V102.307H451.332V103.307H452.332ZM429.639 172V84.7273H427.639V172H429.639ZM428.639 85.7273H466.48V83.7273H428.639V85.7273ZM466.48 85.7273C473.045 85.7273 478.493 86.612 482.859 88.3416L483.595 86.4823C478.927 84.6323 473.21 83.7273 466.48 83.7273V85.7273ZM482.861 88.3424C487.265 90.0766 490.514 92.4981 492.679 95.573L494.314 94.4213C491.878 90.9621 488.28 88.3268 483.593 86.4815L482.861 88.3424ZM492.683 95.5777C494.879 98.6576 495.991 102.299 495.991 106.545H497.991C497.991 101.928 496.774 97.8708 494.311 94.4166L492.683 95.5777ZM495.991 106.545C495.991 109.602 495.316 112.364 493.98 114.85L495.741 115.797C497.245 113 497.991 109.909 497.991 106.545H495.991ZM493.976 114.858C492.66 117.355 490.807 119.453 488.402 121.155L489.558 122.788C492.209 120.911 494.277 118.577 495.745 115.79L493.976 114.858ZM488.408 121.151C486.005 122.825 483.181 123.998 479.918 124.656L480.314 126.617C483.813 125.911 486.898 124.641 489.551 122.792L488.408 121.151ZM479.116 125.636V126.489H481.116V125.636H479.116ZM480.078 127.488C483.677 127.624 486.926 128.535 489.846 130.211L490.841 128.476C487.624 126.63 484.056 125.637 480.154 125.489L480.078 127.488ZM489.852 130.214C492.766 131.86 495.083 134.136 496.813 137.055L498.533 136.036C496.627 132.819 494.058 130.293 490.835 128.473L489.852 130.214ZM496.815 137.059C498.526 139.92 499.4 143.316 499.4 147.284H501.4C501.4 143.014 500.456 139.251 498.531 136.032L496.815 137.059ZM499.4 147.284C499.4 151.872 498.202 155.922 495.82 159.468L497.48 160.583C500.098 156.686 501.4 152.242 501.4 147.284H499.4ZM495.817 159.472C493.46 163.021 490.089 165.834 485.66 167.898L486.504 169.71C491.223 167.512 494.897 164.473 497.483 160.579L495.817 159.472ZM485.66 167.898C481.248 169.953 475.944 171 469.718 171V173C476.163 173 481.769 171.916 486.504 169.71L485.66 167.898ZM469.718 171H428.639V173H469.718V171ZM452.332 154.08H463.412V152.08H452.332V154.08ZM463.412 154.08C467.484 154.08 470.719 153.328 472.957 151.666L471.764 150.061C470.024 151.353 467.294 152.08 463.412 152.08V154.08ZM472.964 151.661C475.248 149.932 476.343 147.394 476.343 144.216H474.343C474.343 146.89 473.451 148.784 471.757 150.066L472.964 151.661ZM476.343 144.216C476.343 142.015 475.837 140.081 474.772 138.466L473.103 139.568C473.912 140.794 474.343 142.326 474.343 144.216H476.343ZM474.772 138.466C473.715 136.865 472.217 135.666 470.324 134.858L469.539 136.698C471.112 137.369 472.285 138.328 473.103 139.568L474.772 138.466ZM470.329 134.861C468.468 134.054 466.265 133.67 463.753 133.67V135.67C466.07 135.67 467.986 136.025 469.534 136.696L470.329 134.861ZM463.753 133.67H452.332V135.67H463.753V133.67ZM451.332 134.67V153.08H453.332V134.67H451.332ZM452.332 121.011H462.048V119.011H452.332V121.011ZM462.048 121.011C464.226 121.011 466.192 120.668 467.925 119.956L467.165 118.106C465.717 118.701 464.018 119.011 462.048 119.011V121.011ZM467.925 119.956C469.664 119.242 471.059 118.197 472.064 116.804L470.441 115.634C469.685 116.684 468.609 117.513 467.165 118.106L467.925 119.956ZM472.061 116.807C473.114 115.36 473.616 113.626 473.616 111.659H471.616C471.616 113.272 471.21 114.577 470.444 115.631L472.061 116.807ZM473.616 111.659C473.616 108.688 472.534 106.309 470.311 104.674L469.126 106.286C470.767 107.492 471.616 109.232 471.616 111.659H473.616ZM470.318 104.68C468.178 103.075 465.51 102.307 462.389 102.307V104.307C465.177 104.307 467.396 104.988 469.118 106.28L470.318 104.68ZM462.389 102.307H452.332V104.307H462.389V102.307ZM451.332 103.307V120.011H453.332V103.307H451.332ZM696.764 106.545L697.669 106.12L697.399 105.545H696.764V106.545ZM706.309 126.83L705.405 127.255L706.286 129.128L707.205 127.274L706.309 126.83ZM716.366 106.545V105.545H715.746L715.47 106.101L716.366 106.545ZM739.718 106.545L740.6 107.018L741.39 105.545H739.718V106.545ZM722.162 139.273L721.28 138.8L721.021 139.284L721.29 139.763L722.162 139.273ZM740.571 172V173H742.281L741.442 171.51L740.571 172ZM717.389 172L716.506 172.47L716.789 173H717.389V172ZM706.309 151.205L707.192 150.734L706.296 149.052L705.421 150.746L706.309 151.205ZM695.571 172V173H696.18L696.459 172.459L695.571 172ZM672.048 172L671.178 171.506L670.33 173H672.048V172ZM690.628 139.273L691.497 139.766L691.768 139.289L691.511 138.804L690.628 139.273ZM673.241 106.545V105.545H671.578L672.358 107.015L673.241 106.545ZM695.859 106.971L705.405 127.255L707.214 126.404L697.669 106.12L695.859 106.971ZM707.205 127.274L717.262 106.99L715.47 106.101L705.413 126.385L707.205 127.274ZM716.366 107.545H739.718V105.545H716.366V107.545ZM738.837 106.073L721.28 138.8L723.043 139.745L740.6 107.018L738.837 106.073ZM721.29 139.763L739.699 172.49L741.442 171.51L723.033 138.782L721.29 139.763ZM740.571 171H717.389V173H740.571V171ZM718.271 171.53L707.192 150.734L705.427 151.675L716.506 172.47L718.271 171.53ZM705.421 150.746L694.682 171.541L696.459 172.459L707.198 151.663L705.421 150.746ZM695.571 171H672.048V173H695.571V171ZM672.918 172.494L691.497 139.766L689.758 138.779L671.178 171.506L672.918 172.494ZM691.511 138.804L674.124 106.076L672.358 107.015L689.744 139.742L691.511 138.804ZM673.241 107.545H696.764V105.545H673.241V107.545Z" fill="white" mask="url(#path-2-outside-1_13_2)"/>
<path fill-rule="evenodd" clip-rule="evenodd" d="M533.742 72.3542C532.478 71.8817 531.116 72.789 531.049 74.1481L527.774 140.224C527.736 140.974 528.118 141.679 528.762 142.052L578.17 170.694C579.45 171.437 581.067 170.557 581.16 169.066L585.848 93.3512C585.902 92.4717 585.381 91.6629 584.563 91.357L533.742 72.3542ZM540.198 95.0926L537.731 138.763L558.175 140.001C561.327 140.193 564.072 139.824 566.408 138.896C568.745 137.967 570.581 136.609 571.916 134.822C573.265 133.035 574.007 130.947 574.142 128.559C574.259 126.498 573.907 124.679 573.088 123.104C572.27 121.513 571.122 120.239 569.644 119.279C568.167 118.305 566.498 117.726 564.635 117.542L564.659 117.115C566.361 116.876 567.866 116.354 569.174 115.549C570.483 114.729 571.521 113.68 572.289 112.4C573.07 111.121 573.506 109.678 573.597 108.071C573.722 105.854 573.251 103.892 572.184 102.187C571.132 100.483 569.499 99.1148 567.288 98.0822C565.091 97.0504 562.338 96.4343 559.03 96.2338L540.198 95.0926ZM555.571 130.344L550.057 130.01L550.577 120.798L556.261 121.142C557.462 121.215 558.477 121.462 559.304 121.883C560.146 122.305 560.78 122.885 561.206 123.624C561.633 124.364 561.817 125.245 561.759 126.268C561.676 127.733 561.119 128.811 560.087 129.505C559.055 130.184 557.55 130.464 555.571 130.344ZM555.827 113.756L550.992 113.463L551.464 105.104L556.469 105.407C557.939 105.496 559.134 105.933 560.055 106.716C560.976 107.485 561.398 108.545 561.322 109.895C561.272 110.791 561.002 111.538 560.515 112.136C560.042 112.72 559.4 113.152 558.59 113.431C557.78 113.71 556.859 113.818 555.827 113.756Z" fill="#060E23"/>
<path fill-rule="evenodd" clip-rule="evenodd" d="M592.495 91.5656C591.617 91.7595 590.971 92.5136 590.915 93.4099L586.171 169.832C586.083 171.245 587.45 172.288 588.794 171.835L645.865 152.572C646.632 152.313 647.172 151.619 647.233 150.813L652.537 80.9268C652.638 79.595 651.431 78.5499 650.126 78.8383L592.495 91.5656ZM637.963 118.282C639.967 117.661 642.718 117.996 643.762 118.797L643.762 118.796L644.454 119.327C644.454 119.327 644.031 120.326 643.986 120.393C642.221 124.251 638.722 124.177 637.194 124.145C637.129 124.144 637.067 124.143 637.01 124.142C632.668 136.415 625.595 141.506 617.365 141.522C611.971 141.533 608.372 139.545 605.996 136.827C605.612 136.387 605.258 135.93 604.936 135.458C602.018 131.181 601.655 125.918 601.715 123.181L618.13 123.132C620.005 123.127 621.623 123.134 623.033 123.14C629.614 123.17 631.621 123.179 633.773 121.754C633.084 120.796 632.73 119.474 632.628 118.297C632.5 116.386 632.893 114.283 633.812 112.703L634.279 111.903L634.973 112.433C636.846 114.098 637.865 116.01 637.963 118.282ZM607.841 116.401L612.457 116.388L612.434 121.649L607.818 121.663L607.841 116.401ZM613.804 116.384L618.42 116.37L618.397 121.632L613.781 121.645L613.804 116.384ZM619.768 116.366L624.383 116.352L624.361 121.614L619.745 121.628L619.768 116.366ZM625.731 116.348L630.347 116.334L630.324 121.596L625.708 121.61L625.731 116.348ZM601.877 116.419L606.493 116.406L606.47 121.667L601.854 121.681L601.877 116.419ZM607.87 109.756L612.485 109.742L612.463 115.004L607.847 115.017L607.87 109.756ZM613.833 109.738L618.449 109.724L618.426 114.986L613.81 115L613.833 109.738ZM619.796 109.72L624.412 109.706L624.39 114.968L619.774 114.982L619.796 109.72ZM619.825 103.074L624.441 103.06L624.418 108.322L619.802 108.336L619.825 103.074Z" fill="#060E23"/>
<path d="M589.053 52.6318L650.104 71.078C651.607 71.5321 651.583 73.7535 650.072 74.0447L589.093 85.7932C588.845 85.841 588.587 85.8208 588.343 85.7346L535.278 66.9441C533.845 66.4366 533.894 64.3177 535.347 64.0051L588.34 52.6009C588.574 52.5505 588.819 52.5611 589.053 52.6318Z" fill="#3474F1" stroke="white"/>
</svg>
