<svg width="173" height="165" viewBox="0 0 173 165" fill="none" xmlns="http://www.w3.org/2000/svg">
<g filter="url(#filter0_d_5_135)">
<rect x="11" y="3" width="147" height="139" rx="5" fill="#F7F3F3"/>
<rect x="11" y="3" width="147" height="139" rx="5" fill="#F7F3F3"/>
</g>
<rect x="52" y="43" width="73" height="67" rx="8" fill="white"/>
<path fill-rule="evenodd" clip-rule="evenodd" d="M63.0761 67.0195C61.8224 66.6116 60.5221 67.5013 60.4538 68.8138L59.1998 92.9056C59.1586 93.6958 59.5897 94.4356 60.2987 94.7918L81.1351 105.258C82.4163 105.902 83.9411 105.034 84.0357 103.608L85.8667 76.0154C85.9271 75.1047 85.36 74.269 84.4893 73.9858L63.0761 67.0195ZM67.4436 78.8534L66.5726 93.3561L73.4159 93.7339C74.4713 93.7921 75.3906 93.6653 76.1738 93.3533C76.957 93.0413 77.5731 92.5874 78.0219 91.9917C78.4756 91.3962 78.7262 90.702 78.7738 89.9089C78.8149 89.2243 78.6992 88.6211 78.4267 88.0993C78.1544 87.5727 77.7714 87.1513 77.2775 86.8351C76.784 86.5142 76.2256 86.3247 75.6023 86.2666L75.6108 86.125C76.1808 86.0428 76.6852 85.8669 77.124 85.5975C77.563 85.3233 77.9117 84.9731 78.1699 84.5469C78.4329 84.1209 78.5805 83.6412 78.6125 83.1077C78.6567 82.3712 78.5011 81.7208 78.1457 81.1565C77.7949 80.5924 77.2499 80.1408 76.5105 79.8016C75.7759 79.4626 74.8549 79.2626 73.7475 79.2014L67.4436 78.8534ZM72.5541 90.5317L70.7084 90.4298L70.8922 87.3707L72.7947 87.4757C73.1969 87.4979 73.5364 87.5782 73.8129 87.7167C74.0943 87.8553 74.3059 88.047 74.4479 88.2917C74.5899 88.5364 74.6507 88.8286 74.6303 89.1685C74.6011 89.6548 74.4133 90.0139 74.067 90.2458C73.721 90.473 73.2167 90.5683 72.5541 90.5317ZM72.657 85.024L71.0385 84.9347L71.2052 82.1588L72.8805 82.2513C73.3727 82.2785 73.7725 82.4213 74.0798 82.6798C74.3875 82.9337 74.5278 83.2848 74.5009 83.7333C74.483 84.0307 74.3922 84.2791 74.2282 84.4785C74.0693 84.6734 73.8541 84.8178 73.5826 84.9117C73.311 85.0057 73.0025 85.0431 72.657 85.024Z" fill="#050B2C"/>
<path fill-rule="evenodd" clip-rule="evenodd" d="M89.8385 74.1963C88.9419 74.365 88.273 75.119 88.2124 76.0293L86.3538 103.964C86.2617 105.348 87.5721 106.403 88.9047 106.018L113.089 99.0248C113.886 98.7943 114.459 98.0951 114.527 97.2678L116.635 71.7304C116.743 70.4146 115.569 69.3566 114.272 69.6006L89.8385 74.1963ZM108.202 87.076C109.023 86.8832 110.153 86.9914 110.583 87.244L110.582 87.2438L110.868 87.4113C110.868 87.4113 110.696 87.7246 110.677 87.7459C109.96 88.9559 108.524 88.9292 107.897 88.9175C107.871 88.917 107.845 88.9165 107.822 88.9162C106.063 92.7676 103.17 94.3597 99.7928 94.3561C97.5791 94.3536 96.0986 93.7253 95.1186 92.8688C94.9602 92.7301 94.8141 92.5862 94.6809 92.4374C93.4754 91.0907 93.3165 89.4368 93.336 88.577L100.072 88.579C100.841 88.5792 101.506 88.5833 102.084 88.5867C104.785 88.6031 105.609 88.6081 106.489 88.1627C106.204 87.8609 106.057 87.445 106.012 87.0752C105.956 86.4748 106.114 85.8144 106.488 85.3188L106.678 85.068L106.964 85.2354C107.736 85.7605 108.157 86.3621 108.202 87.076ZM95.8372 86.4534L97.7313 86.454L97.7319 88.1071L95.8377 88.1065L95.8372 86.4534ZM98.2843 86.4541L100.178 86.4547L100.179 88.1078L98.2848 88.1072L98.2843 86.4541ZM100.731 86.4549L102.626 86.4554L102.626 88.1085L100.732 88.108L100.731 86.4549ZM103.179 86.4556L105.073 86.4561L105.073 88.1092L103.179 88.1087L103.179 86.4556ZM93.39 86.4527L95.2842 86.4532L95.2847 88.1064L93.3905 88.1058L93.39 86.4527ZM95.8365 84.3655L97.7307 84.366L97.7312 86.0191L95.837 86.0186L95.8365 84.3655ZM98.2837 84.3662L100.178 84.3668L100.178 86.0199L98.2842 86.0193L98.2837 84.3662ZM100.731 84.3669L102.625 84.3675L102.625 86.0206L100.731 86.02L100.731 84.3669ZM100.73 82.2788L102.624 82.2793L102.625 83.9324L100.731 83.9319L100.73 82.2788Z" fill="#040A25"/>
<path d="M86.8933 57.767C87.1536 57.7275 87.4181 57.738 87.6719 57.7982L113.269 63.8602C115.367 64.357 115.233 67.3288 113.094 67.7343L87.7963 72.5303C87.4641 72.5933 87.123 72.5738 86.8041 72.4737L63.4074 65.1263C61.3906 64.4929 61.6831 61.5989 63.7963 61.2777L86.8933 57.767Z" fill="#3474F1"/>
<defs>
<filter id="filter0_d_5_135" x="0" y="0" width="173" height="165" filterUnits="userSpaceOnUse" color-interpolation-filters="sRGB">
<feFlood flood-opacity="0" result="BackgroundImageFix"/>
<feColorMatrix in="SourceAlpha" type="matrix" values="0 0 0 0 0 0 0 0 0 0 0 0 0 0 0 0 0 0 127 0" result="hardAlpha"/>
<feMorphology radius="2" operator="erode" in="SourceAlpha" result="effect1_dropShadow_5_135"/>
<feOffset dx="2" dy="10"/>
<feGaussianBlur stdDeviation="7.5"/>
<feComposite in2="hardAlpha" operator="out"/>
<feColorMatrix type="matrix" values="0 0 0 0 0 0 0 0 0 0 0 0 0 0 0 0 0 0 0.1 0"/>
<feBlend mode="normal" in2="BackgroundImageFix" result="effect1_dropShadow_5_135"/>
<feBlend mode="normal" in="SourceGraphic" in2="effect1_dropShadow_5_135" result="shape"/>
</filter>
</defs>
</svg>
