<svg width="73" height="68" viewBox="0 0 73 68" fill="none" xmlns="http://www.w3.org/2000/svg">
<rect x="0.5" y="0.620842" width="72" height="66.8792" rx="7.5" fill="#061335" stroke="black"/>
<path fill-rule="evenodd" clip-rule="evenodd" d="M11.0707 21.3044C9.81358 20.8798 8.49879 21.7734 8.43222 23.0978L7.1286 49.0327C7.08939 49.8127 7.50828 50.5442 8.20114 50.9056L29.6976 62.1199C30.9803 62.789 32.5274 61.9185 32.6198 60.4756L34.5208 30.7896C34.5786 29.8867 34.0224 29.0573 33.1646 28.7676L11.0707 21.3044ZM15.7743 33.658L14.9327 48.1758L21.7696 48.5668C22.824 48.6271 23.7421 48.5018 24.5238 48.1909C25.3056 47.88 25.9201 47.4268 26.3674 46.8312C26.8194 46.2359 27.0684 45.5413 27.1144 44.7473C27.1541 44.0621 27.0373 43.458 26.764 42.935C26.491 42.4073 26.1076 41.9847 25.6136 41.6672C25.12 41.345 24.5618 41.1543 23.939 41.095L23.9472 40.9532C24.5165 40.8719 25.02 40.6969 25.4578 40.4279C25.8958 40.1542 26.2435 39.8043 26.5006 39.378C26.7625 38.9521 26.9089 38.4721 26.9399 37.938C26.9826 37.2008 26.8259 36.5494 26.4697 35.9837C26.1182 35.4183 25.5729 34.9652 24.8336 34.6242C24.0991 34.2834 23.1786 34.0815 22.0722 34.0182L15.7743 33.658ZM20.9024 45.3594L19.0584 45.2539L19.236 42.1916L21.1367 42.3003C21.5386 42.3232 21.8778 42.4043 22.1544 42.5434C22.4357 42.6827 22.6475 42.875 22.7898 43.1203C22.9321 43.3655 22.9935 43.6582 22.9737 43.9985C22.9455 44.4852 22.7586 44.8444 22.4132 45.0759C22.0679 45.3027 21.5644 45.3972 20.9024 45.3594ZM20.9944 39.8455L19.3773 39.753L19.5384 36.9742L21.2122 37.07C21.7039 37.0981 22.1036 37.2418 22.4111 37.5012C22.7189 37.7559 22.8598 38.1077 22.8338 38.5567C22.8165 38.8544 22.7262 39.1029 22.5629 39.3022C22.4045 39.497 22.1898 39.6412 21.9187 39.7348C21.6476 39.8283 21.3395 39.8652 20.9944 39.8455Z" fill="white"/>
<path fill-rule="evenodd" clip-rule="evenodd" d="M38.541 28.979C37.6489 29.1534 36.9864 29.9074 36.9282 30.8144L34.9978 60.8785C34.9085 62.2694 36.2337 63.3224 37.5687 62.9213L62.5053 55.4277C63.2953 55.1903 63.8586 54.4925 63.9241 53.6703L66.113 26.1731C66.218 24.8535 65.0353 23.7982 63.7362 24.0523L38.541 28.979ZM57.4407 42.7011C58.2837 42.4954 59.4434 42.6106 59.8847 42.8799L59.8844 42.8797L60.1772 43.0582C60.1772 43.0582 60.0007 43.3924 59.9819 43.415C59.2454 44.7055 57.7714 44.6773 57.1276 44.6649C57.1002 44.6644 57.0742 44.6639 57.0499 44.6635C55.2438 48.771 52.2736 50.4694 48.8067 50.4661C46.5341 50.4638 45.0143 49.794 44.0083 48.8807C43.8457 48.7329 43.6957 48.5795 43.5591 48.4208C42.3217 46.9849 42.1589 45.2211 42.179 44.3043L49.0943 44.3053C49.8841 44.3054 50.5661 44.3096 51.1598 44.3132C53.9326 44.3302 54.778 44.3353 55.6817 43.8602C55.3896 43.5385 55.2382 43.095 55.1929 42.7006C55.1355 42.0604 55.2972 41.3561 55.6813 40.8275L55.8767 40.56L56.1699 40.7385C56.9621 41.2983 57.3952 41.9399 57.4407 42.7011ZM44.7471 42.0392L46.6916 42.0395L46.6919 43.8024L44.7473 43.8021L44.7471 42.0392ZM47.2593 42.0396L49.2039 42.0399L49.2041 43.8028L47.2596 43.8025L47.2593 42.0396ZM49.7716 42.04L51.7161 42.0402L51.7164 43.8031L49.7718 43.8028L49.7716 42.04ZM52.2838 42.0403L54.2284 42.0406L54.2286 43.8035L52.2841 43.8032L52.2838 42.0403ZM42.2348 42.0389L44.1794 42.0392L44.1797 43.802L42.2351 43.8018L42.2348 42.0389ZM44.7468 39.8127L46.6913 39.8129L46.6916 41.5758L44.747 41.5755L44.7468 39.8127ZM47.259 39.813L49.2036 39.8133L49.2038 41.5762L47.2592 41.5759L47.259 39.813ZM49.7712 39.8134L51.7158 39.8137L51.7161 41.5765L49.7715 41.5763L49.7712 39.8134ZM49.7709 37.5866L51.7155 37.5869L51.7158 39.3497L49.7712 39.3495L49.7709 37.5866Z" fill="white"/>
<path d="M35.2835 12.2136C35.5447 12.173 35.8111 12.1843 36.0674 12.2467L62.7033 18.7356C64.7996 19.2462 64.7002 22.2488 62.5742 22.6387L36.1928 27.4768C35.8579 27.5382 35.5133 27.5137 35.1914 27.4056L12.0479 19.6344C10.0631 18.968 10.3211 16.0915 12.3945 15.7694L35.2835 12.2136Z" fill="#7BFAF3"/>
</svg>
